<!DOCTYPE svg PUBLIC "-//W3C//DTD SVG 1.1//EN" "http://www.w3.org/Graphics/SVG/1.1/DTD/svg11.dtd">
<!-- Uploaded to: SVG Repo, www.svgrepo.com, Transformed by: SVG Repo Mixer Tools -->
<svg fill="#ffffff" height="800px" width="800px" version="1.1" id="Layer_1" xmlns="http://www.w3.org/2000/svg" xmlns:xlink="http://www.w3.org/1999/xlink" viewBox="0 0 503.804 503.804" xml:space="preserve">
<g id="SVGRepo_bgCarrier" stroke-width="0"/>
<g id="SVGRepo_tracerCarrier" stroke-linecap="round" stroke-linejoin="round"/>
<g id="SVGRepo_iconCarrier"> <g transform="translate(1 1)"> <g> <g> <path d="M469.131,343.328H368.983c3.881-3.467,7.693-7.613,11.177-12.59c15.948-22.662,20.984-56.236,12.59-97.364 c0-2.518-1.679-5.036-4.197-5.875c-2.518-0.839-5.036-0.839-7.554,0c-7.554,4.197-30.216,12.59-42.807,4.197 c-7.554-5.036-11.751-15.948-10.911-33.574c0-5.875,3.357-17.626,12.59-27.698c26.859-30.216,26.02-78.059-0.839-109.954 c-4.197-5.875-9.233-10.911-15.108-17.626c-1.679-2.518-5.036-3.357-7.554-2.518s-5.036,2.518-5.875,5.036 c0,0-5.036,12.59-14.269,22.662c-7.554,8.393-17.626,7.554-24.341,4.197c-6.715-3.357-13.43-10.911-11.751-21.823 c1.679-11.751,6.715-24.341,15.108-39.449c0.839-1.679,0.839-5.036,0-7.554c-1.679-2.518-4.197-4.197-6.715-4.197 c-0.839,0-31.056-3.357-58.754,17.626c-17.626,13.43-27.698,36.092-25.18,59.593c0.839,11.751,2.518,21.823,5.875,30.216 c0.839,3.357,1.679,7.554,0,11.751c-0.839,1.679-3.357,7.554-15.108,7.554c-0.839,0-1.679,0-1.679,0s-4.197,0.839-8.393-2.518 c-4.197-4.197-6.715-11.751-6.715-22.662c0-3.357-1.679-5.875-4.197-7.554c-2.518-0.839-5.875-0.839-8.393,0.839 c-1.679,0.839-28.538,20.984-28.538,50.361c0,20.144,11.751,38.61,36.931,56.236c5.036,2.518,20.984,14.269,20.984,26.02v0.839 c0.839,3.357,0.839,13.43-4.197,19.305c-2.518,2.518-6.715,4.197-12.59,4.197c-0.839,0-0.839,0-1.679,0 c-1.679,0-35.252,5.036-41.128-26.859c-0.839-3.357-3.357-5.875-6.715-6.715c-3.357,0-6.715,0.839-8.393,4.197 c-0.839,2.518-29.377,51.2-11.751,92.328c5.106,11.914,13.67,21.668,25.351,29.377H32.672c-18.466,0-33.574,18.466-33.574,41.967 c0,23.502,15.108,41.967,33.574,41.967h51.079c-0.464,2.733-0.718,5.534-0.718,8.393c0,27.698,22.662,50.361,50.361,50.361 c20.778,0,38.721-12.752,46.391-30.816l12.561-6.471c2.345,30.497,27.4,54.074,58.557,54.074 c31.015,0,55.985-23.362,58.525-53.658l12.847,6.618c7.802,17.762,25.577,30.253,46.135,30.253 c27.698,0,50.361-22.662,50.361-50.361c0-2.859-0.254-5.661-0.718-8.393h51.079c18.466,0,33.574-18.466,33.574-41.967 C502.705,361.794,487.597,343.328,469.131,343.328z M104.017,305.558c-8.393-20.144-2.518-43.646,3.357-59.593 c13.43,20.144,37.77,23.502,52.039,20.984c12.59,0,20.144-5.036,24.341-10.072c10.072-11.751,9.233-28.538,8.393-31.895 c0-23.502-26.02-38.61-28.538-40.289c-19.305-13.43-29.377-27.698-29.377-41.967c0-10.072,5.036-18.466,10.072-25.18 c2.518,7.554,5.875,13.43,10.911,17.626c8.393,7.554,17.626,6.715,20.984,6.715c19.305,0,27.698-10.911,30.216-17.626 c3.357-7.554,3.357-15.948,0-24.341c-2.518-7.554-4.197-15.948-5.036-26.02c-1.679-17.626,5.036-34.413,18.466-44.485 c12.59-9.233,25.18-12.59,34.413-13.43c-5.875,11.751-9.233,22.662-10.911,32.734c-2.518,16.787,5.875,31.895,20.984,39.449 c15.108,6.715,32.734,4.197,43.646-8.393c5.036-5.036,9.233-10.911,11.751-15.948c1.679,2.518,4.197,4.197,5.875,6.715 c21.823,26.02,21.823,63.79,0.839,88.131c-10.072,11.751-16.787,26.02-16.787,38.61c0,23.502,5.875,39.449,19.305,47.843 c15.948,10.072,36.931,5.036,49.521,0.839c4.197,31.895,0.839,57.075-11.751,74.702c-11.751,17.626-29.377,21.823-32.734,22.662 h-44.769c14.742-17.593,16.448-42.902,3.641-62.111l-41.967-62.112l-41.967,62.112c-13.802,19.486-11.896,45.254,3.438,62.111 h-52.959C130.876,337.453,112.41,324.863,104.017,305.558z M318.049,434.817l-10.072-5.036l-0.118-0.353 c-0.731-2.911-1.674-5.732-2.815-8.445l-15.533-46.599l32.025,11.88l19.268,7.34c-12.184,8.042-20.707,21.219-22.426,36.388 C318.053,431.588,318.049,432.98,318.049,434.817z M273.564,333.256c-10.072,10.072-22.662,9.233-22.662,9.233h-0.839 c-15.108,0-22.662-8.393-23.502-9.233c-10.911-10.911-12.59-29.377-3.357-42.807l27.698-41.128l26.02,41.128 C286.154,303.879,284.476,322.345,273.564,333.256z M231.189,366.376c1.646-1.481,2.926-3.868,2.926-6.261h15.948h2.518h15.108 c0,1.679,0.63,3.357,1.574,4.721l9.04,27.121c-8.158-4.253-17.466-6.662-27.401-6.662c-10.349,0-20.022,2.607-28.419,7.198 L231.189,366.376z M15.886,385.296c0-13.429,7.554-25.18,16.787-25.18s16.787,11.751,16.787,25.18 c0,13.43-7.554,25.18-16.787,25.18S15.886,398.725,15.886,385.296z M89.748,410.476H59.593 c3.636-6.073,5.976-13.452,6.522-21.541c0.014-0.2,0.024-0.401,0.036-0.602c0.021-0.375,0.044-0.75,0.057-1.129 c0.024-0.636,0.038-1.272,0.038-1.909s-0.015-1.273-0.038-1.909c-0.013-0.378-0.036-0.753-0.057-1.129 c-0.012-0.201-0.022-0.401-0.036-0.602c-0.546-8.09-2.886-15.468-6.522-21.541h97.302c0.839,0,0.839,0,1.679,0h42.933 l-66.728,25.18c-0.462,0-0.923,0-1.385,0c-0.769,0-1.532,0.024-2.292,0.058c-0.194,0.009-0.387,0.019-0.58,0.03 c-0.731,0.042-1.458,0.094-2.18,0.167c-0.063,0.006-0.126,0.014-0.189,0.02c-0.681,0.072-1.357,0.161-2.03,0.26 c-0.255,0.037-0.509,0.077-0.762,0.118c-0.507,0.083-1.011,0.174-1.513,0.272c-0.478,0.093-0.952,0.195-1.426,0.301 c-0.312,0.071-0.624,0.14-0.933,0.217c-0.458,0.112-0.913,0.231-1.366,0.356c-0.043,0.012-0.085,0.025-0.128,0.037 c-11.691,3.25-21.709,10.625-28.353,20.454C90.983,408.527,90.35,409.49,89.748,410.476z M133.394,469.23 c-18.466,0-33.574-15.108-33.574-33.574c0-4.039,0.723-7.918,2.046-11.512c0.499-0.567,0.951-1.195,1.312-1.917 c1.845-4.613,4.598-8.541,7.998-11.678c4.99-4.424,11.294-7.389,18.232-8.22c0.323-0.037,0.645-0.076,0.97-0.103 c0.296-0.027,0.594-0.05,0.892-0.068c0.196-0.012,0.396-0.012,0.593-0.021c0.931,0.499,1.998,0.786,3.209,0.786 c17.626,1.679,31.056,15.948,31.056,33.574c0,3.357,0,6.715-1.679,10.911c-0.13,0.521-0.206,1.04-0.255,1.558 C159.015,460.858,147.137,469.23,133.394,469.23z M183.722,434.384c-0.213-8.441-2.523-16.381-6.436-23.318 c-0.255-0.469-0.529-0.925-0.798-1.384c-0.023-0.039-0.045-0.078-0.069-0.116c-3.556-6.024-8.298-11.138-14.021-15 c-0.424-0.3-0.849-0.599-1.282-0.886l51.176-19.296l-15.533,46.599c-1.141,2.713-2.084,5.534-2.815,8.445l-0.118,0.353 l-10.072,5.036C183.747,434.671,183.73,434.529,183.722,434.384z M250.902,486.017c-23.502,0-41.967-18.466-41.967-41.967 c0-23.502,18.466-41.967,41.967-41.967s41.967,18.466,41.967,41.967C292.869,467.551,274.404,486.017,250.902,486.017z M368.41,469.23c-13.693,0-25.533-8.312-30.742-20.136c0.002-0.833-0.102-1.679-0.313-2.526 c-0.839-1.679-1.679-3.357-1.679-5.036c-0.4-1.2-0.606-2.207-0.716-3.117c-0.075-0.911-0.123-1.829-0.123-2.759 c0-0.001,0-0.001,0-0.002c0.001-1.677,0.839-2.517,0.839-5.034c1.128-7.521,4.452-14.026,9.281-18.922 c5.664-5.547,13.265-9.12,21.664-9.567c0.029-0.001,0.058-0.004,0.087-0.006c0.564-0.029,1.132-0.043,1.703-0.043 c0.783,0,1.559,0.035,2.33,0.091c0.108,0.008,0.216,0.016,0.324,0.025c10.235,0.849,19.278,6.559,25.192,14.763 c3.612,5.352,5.727,11.789,5.727,18.695C401.984,454.122,386.876,469.23,368.41,469.23z M372.014,385.44 c-0.155-0.012-0.31-0.025-0.466-0.036c-0.342-0.021-0.685-0.04-1.029-0.055c-0.335-0.015-0.671-0.026-1.006-0.034l-69.3-25.2 h34.623c0.839,0,0.839,0,0.839,0h106.535c-3.636,6.073-5.976,13.452-6.522,21.541c-0.014,0.2-0.025,0.401-0.036,0.602 c-0.021,0.376-0.044,0.75-0.057,1.129c-0.024,0.636-0.038,1.272-0.038,1.909s0.015,1.273,0.038,1.909 c0.013,0.378,0.036,0.753,0.057,1.129c0.012,0.201,0.022,0.401,0.036,0.602c0.546,8.09,2.886,15.468,6.522,21.541h-30.155 c-0.575-0.941-1.179-1.862-1.811-2.762C401.818,395.163,387.905,386.579,372.014,385.44z M469.131,410.476 c-9.233,0-16.787-11.751-16.787-25.18c0-13.429,7.554-25.18,16.787-25.18s16.787,11.751,16.787,25.18 C485.918,398.725,478.364,410.476,469.131,410.476z"/> <path d="M108.213,41.165c5.036,0,8.393-3.357,8.393-8.393s-3.357-8.393-8.393-8.393s-8.393,3.357-8.393,8.393 S103.177,41.165,108.213,41.165z"/> <path d="M435.558,167.066c5.036,0,8.393-3.357,8.393-8.393s-3.357-8.393-8.393-8.393c-5.036,0-8.393,3.357-8.393,8.393 S430.522,167.066,435.558,167.066z"/> <path d="M15.886,217.427c5.036,0,8.393-3.357,8.393-8.393s-3.357-8.393-8.393-8.393c-5.036,0-8.393,3.357-8.393,8.393 S10.849,217.427,15.886,217.427z"/> </g> </g> </g> </g>
</svg>