<!DOCTYPE svg PUBLIC "-//W3C//DTD SVG 1.1//EN" "http://www.w3.org/Graphics/SVG/1.1/DTD/svg11.dtd">
<!-- Uploaded to: SVG Repo, www.svgrepo.com, Transformed by: SVG Repo Mixer Tools -->
<svg width="800px" height="800px" viewBox="0 0 72 72" id="emoji" xmlns="http://www.w3.org/2000/svg" fill="#ffffff" transform="matrix(-1, 0, 0, 1, 0, 0)rotate(0)" stroke="#ffffff">
<g id="SVGRepo_bgCarrier" stroke-width="0"/>
<g id="SVGRepo_tracerCarrier" stroke-linecap="round" stroke-linejoin="round"/>
<g id="SVGRepo_iconCarrier"> <g id="color"> <path fill="#ffffff" d="M31.6687,28.2991c-8.1155,0-13.92,5.3219-13.92,15.52V62.69h-6.14V43.4894c0-13.5,7.7484-20.793,20.2484-20.793H51.8389l-10.4-9.6,3.8-4.1,17.8,16.5-17.8,16.5-3.8-4.1,10.4-9.6Z"/> </g> <g id="line"> <path fill="none" stroke="#ffffff" stroke-linecap="round" stroke-linejoin="round" stroke-width="0.00072" d="M31.6687,28.2991c-8.1155,0-13.92,5.3219-13.92,15.52V62.69h-6.14V43.4894c0-13.5,7.7484-20.793,20.2484-20.793H51.8389l-10.4-9.6,3.8-4.1,17.8,16.5-17.8,16.5-3.8-4.1,10.4-9.6Z"/> </g> </g>
</svg>