<?xml version="1.0" encoding="utf-8"?>
<!-- Generator: Adobe Illustrator 27.3.1, SVG Export Plug-In . SVG Version: 6.00 Build 0)  -->
<svg version="1.1" id="Layer_1" xmlns="http://www.w3.org/2000/svg" xmlns:xlink="http://www.w3.org/1999/xlink" x="0px" y="0px"
	 viewBox="0 0 600 600" style="enable-background:new 0 0 600 600;" xml:space="preserve">
<style type="text/css">
	.st0{fill:#FFFFFF;}
</style>
<path class="st0" d="M324.18,600.9h-48.37c-16.33,0-29.58-13.24-29.58-29.58V30.47c0-16.33,13.24-29.58,29.58-29.58h48.37
	c16.33,0,29.58,13.24,29.58,29.58v540.85C353.76,587.65,340.52,600.9,324.18,600.9z"/>
<path class="st0" d="M598.48,277.88v48.37c0,16.33-13.24,29.58-29.58,29.58H28.05c-16.33,0-29.58-13.24-29.58-29.58v-48.37
	c0-16.33,13.24-29.58,29.58-29.58H568.9C585.24,248.3,598.48,261.54,598.48,277.88z"/>
</svg>
