<!DOCTYPE svg PUBLIC "-//W3C//DTD SVG 1.1//EN" "http://www.w3.org/Graphics/SVG/1.1/DTD/svg11.dtd">
<!-- Uploaded to: SVG Repo, www.svgrepo.com, Transformed by: SVG Repo Mixer Tools -->
<svg width="800px" height="800px" viewBox="0 0 24 24" version="1.1" xml:space="preserve" xmlns="http://www.w3.org/2000/svg" xmlns:xlink="http://www.w3.org/1999/xlink" fill="#ffffff" stroke="#ffffff">
<g id="SVGRepo_bgCarrier" stroke-width="0"/>
<g id="SVGRepo_tracerCarrier" stroke-linecap="round" stroke-linejoin="round"/>
<g id="SVGRepo_iconCarrier"> <style type="text/css"> .st0{opacity:0.2;fill:none;stroke:#000000;stroke-width:5.000000e-02;stroke-miterlimit:10;} </style> <g id="grid_system"/> <g id="_icons"> <g> <path d="M16.6,4.2c-0.5-0.3-1.1-0.1-1.4,0.4c-0.3,0.5-0.1,1.1,0.4,1.4c2.1,1.3,3.5,3.6,3.5,6c0,3.9-3.1,7-7,7s-7-3.1-7-7 c0-2.5,1.4-4.8,3.5-6.1C9,5.6,9.2,5,8.9,4.6C8.6,4.1,8,3.9,7.5,4.2C4.7,5.8,3,8.8,3,12c0,5,4,9,9,9s9-4,9-9 C21,8.8,19.3,5.9,16.6,4.2z"/> <path d="M12,13c0.6,0,1-0.4,1-1V3c0-0.6-0.4-1-1-1s-1,0.4-1,1v9C11,12.6,11.4,13,12,13z"/> </g> </g> </g>
</svg>