<?xml version="1.0" encoding="utf-8"?>
<!-- Generator: Adobe Illustrator 27.3.1, SVG Export Plug-In . SVG Version: 6.00 Build 0)  -->
<svg version="1.1" id="Layer_2" xmlns="http://www.w3.org/2000/svg" xmlns:xlink="http://www.w3.org/1999/xlink" x="0px" y="0px"
	 viewBox="0 0 600 600" style="enable-background:new 0 0 600 600;" xml:space="preserve">
<style type="text/css">
	.st0{fill:#FFFFFF;}
	.st1{fill:#231F20;}
</style>
<g>
	<path class="st0" d="M413.25,474.68c-23.41,0-31.71-10.31-36.32-19.3c-8.23-16.03-9.18-41.1-9.18-58.57v-65.43
		c0-19.54,10.32-38.76,29.06-54.14c18.11-14.86,41.79-23.73,63.35-23.73h18.03c21.91,0,46.43,8.95,65.6,23.94
		c11.5,9,30.79,27.96,30.79,53.93v65.43c0,26.25-3.57,45.22-10.9,57.98c-7.8,13.56-20.09,19.88-38.68,19.88H413.25z"/>
	<path class="st1" d="M478.18,267.52c18.61,0,40.44,8.03,56.97,20.96c16.15,12.63,25.42,28.27,25.42,42.9v65.43
		c0,23.41-3.04,40.57-9.04,51.01c-3.84,6.68-9.71,12.86-26.54,12.86H413.25c-16.49,0-20.83-5.78-23.87-11.69
		c-7.63-14.87-7.63-42.95-7.63-52.17v-65.43c0-15.04,8.73-30.83,23.94-43.31c15.68-12.87,36.04-20.55,54.47-20.55H478.18
		 M478.18,239.52h-18.02c-50.74,0-106.41,41.13-106.41,91.87v65.43c0,50.74,8.77,91.87,59.5,91.87h111.73
		c50.74,0,63.59-41.13,63.59-91.87v-65.43C588.57,280.65,528.92,239.52,478.18,239.52L478.18,239.52z"/>
</g>
<g>
	<path class="st0" d="M74.61,474.68c-23.41,0-31.71-10.31-36.32-19.3c-8.23-16.03-9.18-41.1-9.18-58.57v-65.43
		c0-19.54,10.32-38.76,29.06-54.14c18.11-14.86,41.79-23.73,63.35-23.73h18.02c21.91,0,46.43,8.95,65.6,23.94
		c11.5,9,30.79,27.96,30.79,53.93v65.43c0,26.25-3.57,45.22-10.9,57.98c-7.8,13.56-20.09,19.88-38.68,19.88H74.61z"/>
	<path class="st1" d="M139.54,267.52c18.61,0,40.44,8.03,56.97,20.96c16.15,12.63,25.42,28.27,25.42,42.9v65.43
		c0,23.41-3.04,40.57-9.04,51.01c-3.84,6.68-9.71,12.86-26.54,12.86H74.61c-16.49,0-20.83-5.78-23.87-11.69
		c-7.63-14.87-7.63-42.95-7.63-52.17v-65.43c0-15.04,8.73-30.83,23.94-43.31c15.68-12.87,36.04-20.55,54.47-20.55H139.54
		 M139.54,239.52h-18.02c-50.74,0-106.41,41.13-106.41,91.87v65.43c0,50.74,8.77,91.87,59.5,91.87h111.73
		c50.74,0,63.59-41.13,63.59-91.87v-65.43C249.93,280.65,190.28,239.52,139.54,239.52L139.54,239.52z"/>
</g>
<g>
	<circle class="st0" cx="300.16" cy="140.54" r="91.21"/>
	<path class="st1" d="M300.16,63.33c42.57,0,77.21,34.63,77.21,77.21s-34.63,77.21-77.21,77.21c-42.57,0-77.21-34.63-77.21-77.21
		S257.59,63.33,300.16,63.33 M300.16,35.33c-58.1,0-105.21,47.1-105.21,105.21s47.1,105.21,105.21,105.21s105.21-47.1,105.21-105.21
		S358.27,35.33,300.16,35.33L300.16,35.33z"/>
</g>
<g>
	
		<ellipse transform="matrix(0.1602 -0.9871 0.9871 0.1602 -54.9448 276.4611)" class="st0" cx="135" cy="170.52" rx="72.33" ry="72.33"/>
	<path class="st1" d="M135,112.2c32.16,0,58.33,26.16,58.33,58.33s-26.16,58.33-58.33,58.33s-58.33-26.16-58.33-58.33
		S102.84,112.2,135,112.2 M135,84.2c-47.68,0-86.33,38.65-86.33,86.33s38.65,86.33,86.33,86.33s86.33-38.65,86.33-86.33
		S182.67,84.2,135,84.2L135,84.2z"/>
</g>
<g>
	
		<ellipse transform="matrix(0.3827 -0.9239 0.9239 0.3827 130.5464 536.4177)" class="st0" cx="466.68" cy="170.52" rx="72.33" ry="72.33"/>
	<path class="st1" d="M466.68,112.2c32.16,0,58.33,26.16,58.33,58.33s-26.16,58.33-58.33,58.33c-32.16,0-58.33-26.16-58.33-58.33
		S434.52,112.2,466.68,112.2 M466.68,84.2c-47.68,0-86.33,38.65-86.33,86.33s38.65,86.33,86.33,86.33S553,218.2,553,170.52
		S514.35,84.2,466.68,84.2L466.68,84.2z"/>
</g>
<g>
	<path class="st0" d="M229.94,513.92c-23.41,0-37.81-7.72-46.69-25.02c-10.27-20.01-11.46-50.89-11.46-72.38v-79.34
		c0-24.6,12.9-48.73,36.33-67.95c22.47-18.44,51.9-29.45,78.71-29.45h21.86c27.21,0,57.64,11.09,81.38,29.66
		c24.82,19.41,38.49,43.47,38.49,67.75v79.34c0,32.37-4.46,55.85-13.62,71.8c-10.04,17.47-25.76,25.6-49.49,25.6H229.94z"/>
	<path class="st1" d="M308.68,253.78c24.19,0,51.39,9.98,72.75,26.68c10.44,8.16,18.96,17.65,24.64,27.42
		c5.62,9.68,8.47,19.54,8.47,29.3v79.34c0,29.44-3.96,51.25-11.76,64.82c-5.28,9.19-13.85,18.58-37.35,18.58H229.94
		c-22.24,0-29.6-8.37-34.24-17.42c-8.89-17.31-9.92-45.95-9.92-65.99v-79.34c0-10.06,2.72-20.13,8.07-29.93
		c5.34-9.76,13.34-19.16,23.13-27.2c20.05-16.45,46.15-26.27,69.83-26.27H308.68 M308.68,225.78h-21.86
		c-61.53,0-129.03,49.88-129.03,111.4v79.34c0,61.53,10.63,111.4,72.16,111.4h135.49c61.53,0,77.11-49.88,77.11-111.4v-79.34
		C442.54,275.65,370.2,225.78,308.68,225.78L308.68,225.78z"/>
</g>
</svg>
