<?xml version="1.0" encoding="utf-8"?>
<!-- Generator: Adobe Illustrator 27.3.1, SVG Export Plug-In . SVG Version: 6.00 Build 0)  -->
<svg version="1.1" id="Layer_1" xmlns="http://www.w3.org/2000/svg" xmlns:xlink="http://www.w3.org/1999/xlink" x="0px" y="0px"
	 viewBox="0 0 600 600" style="enable-background:new 0 0 600 600;" xml:space="preserve">
<style type="text/css">
	.st0{fill:#FFFFFF;}
</style>
<path class="st0" d="M591.26,453.23H466.25c8.93,20.4,19.55,56.09,9.09,96.2H8.68c0,0-45.29-158.88,158.4-228.37
	c-50.23-25.64-84.63-77.87-84.63-138.13c0-85.6,69.39-154.99,154.98-154.99c42.28,0,80.6,16.93,108.56,44.37
	c19.34-13.36,42.79-21.17,68.07-21.17c66.28,0,120,53.73,120,120c0,44.37-24.08,83.12-59.89,103.88
	C629.63,329.8,591.26,453.23,591.26,453.23z"/>
</svg>
