<?xml version="1.0" encoding="utf-8"?>
<!-- Generator: Adobe Illustrator 27.3.1, SVG Export Plug-In . SVG Version: 6.00 Build 0)  -->
<svg version="1.1" id="Layer_1" xmlns="http://www.w3.org/2000/svg" xmlns:xlink="http://www.w3.org/1999/xlink" x="0px" y="0px"
	 viewBox="0 0 800 800" style="enable-background:new 0 0 800 800;" xml:space="preserve">
<path d="M593.7,26.7l-198.6,43c-25.4,5.6-39.3,19.1-39.3,41.5l2.2,415.8c0,17.2-7.9,28.4-23.2,31.4l-59.5,12.7
	c-76.3,15.7-111.8,55-111.8,112.2c0,58.3,45.2,99.5,108.4,99.5c55.3,0,139.1-41.5,139.1-151.5V289.2c0-18.7,3-22.1,19.8-25.4
	l178-39.3c13.5-3,22.1-13.5,22.1-26.5V57C631.1,36,613.8,22.2,593.7,26.7z M458.7,187.4c-3.4,3.1-7.8,3-10.7-0.1
	c-2.8-3.1-2.7-6.9,0.6-11.5l2.6-3.6c0.7-0.9,0.6-1.9-0.3-2.8l-20.2-22.3c-1.1-1.2-1-2.6,0.1-4.1l8.6-11.9c0.9-1.2,2.5-1.3,3.5-0.2
	l6.8,7.6c0.6,0.7,0.7,1.7,0.1,2.5l-7.7,10.7c-0.8,1-0.8,1.3,0.2,2.3l16.5,18.5C464.2,178.4,461.7,184.7,458.7,187.4z M610.8,96.8
	l-8.9,20.7c-0.8,1.9-3,2.8-5.7,2.2l-34.7-8.1c-3.2-0.8-4-0.5-5.2,2.2l-21.7,50.3c-7,16.2-24.7,15.7-34.7,11.4
	c-11.4-4.9-17-14.5-13.3-23.1c3.6-8.4,12.5-11.4,27.3-7.8l11.5,2.8c3,0.8,5.1-0.3,6.2-2.8l26-61.3c1.4-3.3,4.8-4.2,9.7-3l38.6,9.2
	C609.9,90.4,612.1,93.7,610.8,96.8z"/>
<path d="M395,317.2c-0.1,0-0.3,0-0.4,0c-12.3,0.6-24.9,1.3-37.9,2.2c-75,5-162.8,14.9-265.3,31c89.5-27.1,176.2-36.9,255.6-35.5
	c-49.5-22.4-94-38.9-126.4-42.4c-88.5-9.5-23.8-259.1-57-224.1c14.9-38.6-56.9,143.1,77.3,154.2C298.4,207.4,348.3,257.9,395,317.2z
	"/>
<path d="M710.6,633.8c-19,6.2-42.8-138.7-72.4-122.8c-78.2,42-145.1-62.5-218.4-161.1C532.8,406.1,653.2,628.3,710.6,633.8z"/>
<path d="M771.8,585.4c0,0-15.4-72.7-24.2-118.6C733,366.7,617.7,334.3,395,317.3c0,0,0,0,0-0.1C872.7,294.5,771.8,585.4,771.8,585.4
	z"/>
<path d="M91.3,350.5c-27.2,8.2-54.6,18.1-82.2,29.7c0.3-0.4,9.1-14.1,25.7-31.6c-2.9,7.5-4.2,11.9-4.2,11.9
	C51.4,356.9,71.6,353.6,91.3,350.5z"/>
<path d="M419.8,349.9c-21.5-10.7-42.7-21-63.2-30.4c-3.2-1.5-6.5-3-9.7-4.4c16.2,0.3,32.1,1.1,47.6,2.2c0.2,0,0.3,0,0.5,0
	C403.4,327.9,411.7,338.9,419.8,349.9z"/>
<path d="M747.6,466.8"/>
<path d="M672.6,456.4l6-13.9c0.9-2.1-0.2-4.2-2.4-4.6l-21.5-4.2c-2.8-0.5-4.7,0.2-5.6,2.4l-17.5,41.2c-0.7,1.7-2,2.5-3.6,2.1
	l-6.4-1.3c-8.2-1.7-13.4,0.7-15.8,6.3c-2.5,5.8,0.2,11.8,6.5,14.4c5.5,2.4,15.5,1.8,20.2-9L647,456c0.8-1.8,1.2-2.1,3-1.7l19.3,3.7
	C670.7,458.3,672,457.7,672.6,456.4z"/>
<path d="M251.7,114.7l11.2-25.9c1.7-3.8-1.1-8.1-6-9.2l-48.2-11.4c-6.2-1.4-10.4-0.3-12.1,3.8l-32.4,76.6c-1.4,3.2-4,4.5-7.7,3.5
	l-14.4-3.5c-18.5-4.5-29.6-0.8-34.1,9.7c-4.6,10.7,2.3,22.7,16.6,28.8c12.5,5.4,34.7,5.9,43.4-14.3l27.1-62.8
	c1.5-3.4,2.4-3.8,6.5-2.7l43.3,10.1C247.9,118.2,250.7,117.1,251.7,114.7z"/>
<path d="M700,322.2l-5-5.6c-0.7-0.8-1.9-0.8-2.6,0.1l-6.4,8.8c-0.8,1.1-0.9,2.2-0.1,3l14.9,16.4c0.6,0.7,0.7,1.4,0.2,2.1l-1.9,2.6
	c-2.5,3.3-2.5,6.2-0.5,8.4c2.1,2.3,5.3,2.3,7.8,0.1c2.2-2,4-6.6,0.1-11l-12.2-13.6c-0.7-0.7-0.7-1-0.1-1.7l5.7-7.9
	C700.5,323.4,700.4,322.7,700,322.2z"/>
</svg>
