<?xml version="1.0" encoding="utf-8"?>
<!-- Generator: Adobe Illustrator 27.3.1, SVG Export Plug-In . SVG Version: 6.00 Build 0)  -->
<svg version="1.1" id="Layer_1" xmlns="http://www.w3.org/2000/svg" xmlns:xlink="http://www.w3.org/1999/xlink" x="0px" y="0px"
	 viewBox="0 0 600 600" style="enable-background:new 0 0 600 600;" xml:space="preserve">
<style type="text/css">
	.st0{fill:#1D1D56;}
</style>
<g>
	<path class="st0" d="M585.79,553.5H353.46v31.96c0,8.03-6.51,14.54-14.54,14.54h-74.97c-8.03,0-14.54-6.51-14.54-14.54V553.5H14.2
		c-9.81,0-14.6-11.99-7.47-18.75l130.59-123.71h-50.2c-9.3,0-14.3-10.92-8.23-17.96l100.33-116.47h-36.46
		c-8.51,0-13.72-9.35-9.23-16.59L291.45,5.14c4.25-6.85,14.22-6.85,18.46,0l157.92,254.89c4.49,7.24-0.72,16.59-9.23,16.59h-37.83
		l100.33,116.47c6.07,7.04,1.06,17.96-8.22,17.96h-50.21l130.59,123.71C600.39,541.51,595.62,553.5,585.79,553.5z"/>
</g>
<g id="Layer_2_00000136406768313057508410000000965355697142658435_">
</g>
</svg>
