<?xml version="1.0" encoding="utf-8"?>
<!-- Generator: Adobe Illustrator 27.3.1, SVG Export Plug-In . SVG Version: 6.00 Build 0)  -->
<svg version="1.1" id="Layer_1" xmlns="http://www.w3.org/2000/svg" xmlns:xlink="http://www.w3.org/1999/xlink" x="0px" y="0px"
	 viewBox="0 0 600 600" style="enable-background:new 0 0 600 600;" xml:space="preserve">
<style type="text/css">
	.st0{fill:#FFFFFF;}
</style>
<path class="st0" d="M581.39,551.67H352.25v31.52c0,7.92-6.42,14.34-14.34,14.34h-73.94c-7.92,0-14.34-6.42-14.34-14.34v-31.52
	H17.65c-9.68,0-14.4-11.83-7.37-18.49l128.8-122.01H89.57c-9.17,0-14.1-10.77-8.12-17.71l98.95-114.87h-35.96
	c-8.39,0-13.53-9.22-9.1-16.36L291.09,10.84c4.19-6.76,14.02-6.76,18.21,0l155.75,251.39c4.43,7.14-0.71,16.36-9.1,16.36h-37.31
	l98.95,114.87c5.99,6.94,1.05,17.71-8.11,17.71h-49.52l128.8,122.01C595.79,539.84,591.08,551.67,581.39,551.67z"/>
<g id="Layer_2_00000139262059611287234430000003051627920873629849_">
</g>
</svg>
