<?xml version="1.0" encoding="utf-8"?>
<!-- Generator: Adobe Illustrator 27.3.1, SVG Export Plug-In . SVG Version: 6.00 Build 0)  -->
<svg version="1.1" id="Layer_1" xmlns="http://www.w3.org/2000/svg" xmlns:xlink="http://www.w3.org/1999/xlink" x="0px" y="0px"
	 viewBox="0 0 600 600" style="enable-background:new 0 0 600 600;" xml:space="preserve">
<style type="text/css">
	.st0{fill:#231F20;}
</style>
<g>
	<path class="st0" d="M300.68,37.71l132.53,213.91h-12.44c-9.77,0-18.65,5.7-22.73,14.58c-4.07,8.89-2.6,19.33,3.78,26.73
		l80.21,93.11h-19.37c-10.23,0-19.44,6.24-23.22,15.75c-3.79,9.51-1.4,20.36,6.03,27.4l104.83,99.31H353.46c-13.81,0-25,11.19-25,25
		V575h-54.05v-21.5c0-13.81-11.19-25-25-25H49.68l104.83-99.31c7.43-7.04,9.82-17.9,6.03-27.4c-3.79-9.51-12.99-15.75-23.22-15.75
		h-19.37l80.21-93.11c6.38-7.41,7.86-17.85,3.78-26.73c-4.07-8.89-12.95-14.58-22.73-14.58h-11.07L300.68,37.71 M300.68,0
		c-3.55,0-7.11,1.71-9.23,5.14L133.53,260.03c-4.49,7.24,0.72,16.59,9.23,16.59h36.46L78.89,393.09
		c-6.06,7.04-1.06,17.96,8.23,17.96h50.2L6.73,534.75c-7.13,6.75-2.34,18.75,7.47,18.75h235.21v31.96c0,8.03,6.51,14.54,14.54,14.54
		h74.97c8.03,0,14.54-6.51,14.54-14.54V553.5h232.33c9.82,0,14.6-11.99,7.47-18.75L462.67,411.04h50.21
		c9.29,0,14.3-10.92,8.22-17.96L420.78,276.62h37.83c8.51,0,13.72-9.35,9.23-16.59L309.92,5.14C307.79,1.71,304.24,0,300.68,0
		L300.68,0z"/>
</g>
<g id="Layer_2_00000136406768313057508410000000965355697142658435_">
</g>
</svg>
