<?xml version="1.0" encoding="utf-8"?>
<!-- Generator: Adobe Illustrator 27.3.1, SVG Export Plug-In . SVG Version: 6.00 Build 0)  -->
<svg version="1.1" id="Layer_1" xmlns="http://www.w3.org/2000/svg" xmlns:xlink="http://www.w3.org/1999/xlink" x="0px" y="0px"
	 viewBox="0 0 600 600" style="enable-background:new 0 0 600 600;" xml:space="preserve">
<style type="text/css">
	.st0{fill:#0B5E5C;}
	.st1{fill:#FFFFFF;}
</style>
<path class="st0" d="M477.9,600H122.1C54.7,600,0,545.3,0,477.9V122.1C0,54.7,54.7,0,122.1,0h355.8C545.3,0,600,54.7,600,122.1
	v355.8C600,545.3,545.3,600,477.9,600z"/>
<g>
	<image style="overflow:visible;" width="484" height="488" xlink:href="2DCF8132.png"  transform="matrix(1 0 0 1 58 56)">
	</image>
	<g>
		<path class="st1" d="M489,467.6H335.4v21.1c0,5.3-4.3,9.6-9.6,9.6h-49.6c-5.3,0-9.6-4.3-9.6-9.6v-21.1H111
			c-6.5,0-9.7-7.9-4.9-12.4l86.4-81.8h-33.2c-6.1,0-9.5-7.2-5.4-11.9l66.3-77H196c-5.6,0-9.1-6.2-6.1-11L294.3,105
			c2.8-4.5,9.4-4.5,12.2,0L411,273.6c3,4.8-0.5,11-6.1,11h-25l66.3,77c4,4.7,0.7,11.9-5.4,11.9h-33.2l86.4,81.8
			C498.6,459.7,495.5,467.6,489,467.6z"/>
	</g>
</g>
</svg>
